<?xml version="1.0" encoding="utf-8"?>
<!-- Generator: Adobe Illustrator 24.0.0, SVG Export Plug-In . SVG Version: 6.00 Build 0)  -->
<svg version="1.1" id="图层_1" xmlns="http://www.w3.org/2000/svg" xmlns:xlink="http://www.w3.org/1999/xlink" x="0px" y="0px"
	 viewBox="0 0 523.89 162.28" style="enable-background:new 0 0 523.89 162.28;" xml:space="preserve">
<style type="text/css">
	.st0{fill:#F05000;}
	.st1{fill:#0046A9;}
	.st2{fill:#EE81C6;}
	.st3{fill:#FFB400;}
	.st4{fill:#79CC28;}
	.st5{fill:#F4A600;}
</style>
<g>
	<g>
		<path class="st0" d="M354.88,83.27l1.98,0c0.78,0,1.34,0.75,1.12,1.5c-0.42,1.41-0.78,2.73-1.09,3.98
			c-0.13,0.53-0.59,0.89-1.13,0.89l-2.2,0c-0.78,0-1.35-0.75-1.12-1.49c0.41-1.34,0.85-2.7,1.33-4.08
			C353.93,83.59,354.38,83.27,354.88,83.27z"/>
		<path class="st0" d="M364.28,84.28c0.17,1.45,0.29,2.84,0.34,4.18c0.02,0.65-0.5,1.18-1.15,1.18l-2.43,0
			c-0.63,0-1.15-0.51-1.15-1.14c0-1.15-0.03-2.49-0.1-4.03c-0.03-0.65,0.49-1.2,1.15-1.2l2.2,0
			C363.71,83.27,364.21,83.71,364.28,84.28z"/>
		<path class="st0" d="M379.47,65.6h-9.39c-0.42,0-0.74-0.36-0.7-0.78l0.05-0.56c0.04-0.41-0.28-0.77-0.69-0.78
			c-1.14-0.02-2.3,0-3.48,0c-0.53,0-0.91,0.32-0.97,0.89c-0.15,1.39-0.44,4.94-0.53,5.81c-0.07,0.68-0.75,0.88-1.36,0.88
			c-1.63,0-3.67-0.03-5.04-0.03c-0.89,0-1.31,0.6-1.39,1.33c-0.31,3.01-0.6,6.01-0.87,9c-0.04,0.41,0.29,0.77,0.71,0.77h20.06
			c0.36,0,0.67-0.28,0.7-0.64l0.93-9.65c0.04-0.42-0.29-0.78-0.7-0.78h-7.25c-0.42,0-0.74-0.36-0.7-0.78l0.08-0.83
			c0.04-0.36,0.34-0.64,0.7-0.64h9.66c0.36,0,0.67-0.28,0.7-0.64l0.17-1.8C380.22,65.96,379.89,65.6,379.47,65.6z M371.43,74.39
			c0.54,0,0.96,0.47,0.91,1.01l-0.25,2.55c-0.05,0.47-0.44,0.83-0.91,0.83h-9.98c-0.54,0-0.96-0.47-0.91-1.01l0.25-2.55
			c0.05-0.47,0.44-0.83,0.91-0.83H371.43z"/>
		<path class="st0" d="M370.82,84.22c0.24,1.38,0.42,2.78,0.55,4.18c0.06,0.67-0.48,1.24-1.15,1.24l-2.39,0
			c-0.6,0-1.12-0.48-1.14-1.08c-0.05-1.17-0.16-2.51-0.32-4.02c-0.07-0.67,0.46-1.26,1.14-1.26l2.17,0
			C370.24,83.27,370.72,83.67,370.82,84.22z"/>
		<path class="st0" d="M377.33,84.19c0.27,1.4,0.48,2.79,0.63,4.19c0.07,0.67-0.47,1.26-1.15,1.26l-2.37,0
			c-0.6,0-1.1-0.45-1.14-1.05c-0.08-1.12-0.23-2.45-0.45-4.01c-0.1-0.69,0.44-1.31,1.14-1.31l2.21,0
			C376.75,83.27,377.23,83.66,377.33,84.19z"/>
	</g>
	<g>
		<path class="st0" d="M408.1,86.28h0.48c0.36,0,0.67-0.28,0.7-0.64l0.06-0.59c0.03-0.36,0.34-0.64,0.7-0.64h2.12
			c0.51,0,0.91,0.44,0.87,0.95l-0.32,3.34c-0.04,0.45-0.42,0.79-0.87,0.79h-8.05c-1.11,0-1.73-0.77-1.59-1.83l0.31-3.29
			c0.05-0.51-0.35-0.95-0.87-0.95l-3.21,0c-0.41,0-0.76,0.34-0.83,0.74c-0.6,3.87-3.83,5.85-9.7,5.95
			c-0.53,0.01-0.92-0.43-0.87-0.95l0.16-1.7c0.04-0.42,0.39-0.75,0.81-0.79c3.23-0.3,4.89-1.67,4.96-4.1l0.13-1.38
			c0.04-0.45,0.42-0.79,0.87-0.79h12.35c0.93,0,1.33,0.44,1.28,1.37l-0.35,3.55C407.18,85.84,407.58,86.28,408.1,86.28z"/>
		<path class="st0" d="M413.74,77.31l-0.36,3.7c-0.05,0.5-0.47,0.89-0.98,0.89h-2.7c-0.58,0-1.04-0.5-0.98-1.08l0.04-0.44
			c0.06-0.58-0.4-1.08-0.98-1.08h-14.7c-0.51,0-0.93,0.39-0.98,0.89l-0.08,0.82c-0.05,0.5-0.47,0.89-0.98,0.89h-2.7
			c-0.58,0-1.04-0.5-0.98-1.08l0.36-3.7c0.05-0.5,0.47-0.89,0.98-0.89h24.07C413.34,76.23,413.8,76.73,413.74,77.31z"/>
		<path class="st0" d="M388.36,67.16l0.15-1.59c0.04-0.38,0.35-0.67,0.73-0.67h9.2c0.3,0,0.54-0.22,0.57-0.52l0.02-0.22
			c0.03-0.29,0.28-0.52,0.57-0.52h4.7c0.34,0,0.6,0.29,0.57,0.63l0,0c-0.03,0.34,0.23,0.63,0.57,0.63h8.92
			c0.43,0,0.78,0.37,0.73,0.81l-0.15,1.59c-0.04,0.38-0.35,0.67-0.73,0.67h-25.12C388.65,67.97,388.31,67.59,388.36,67.16z"/>
		<path class="st0" d="M410.28,68.82H392.7c-0.51,0-0.94,0.39-0.99,0.9l-0.44,4.54c-0.06,0.59,0.4,1.09,0.99,1.09h17.57
			c0.51,0,0.94-0.39,0.99-0.9l0.44-4.54C411.33,69.32,410.86,68.82,410.28,68.82z M406.36,72.26c-0.03,0.27-0.25,0.47-0.51,0.47
			h-9.17c-0.31,0-0.54-0.26-0.51-0.57l0.02-0.25c0.03-0.27,0.25-0.47,0.51-0.47h9.17c0.31,0,0.54,0.26,0.51,0.57L406.36,72.26z"/>
	</g>
	<path class="st0" d="M421.26,87.36l0.16-1.7c0.04-0.46,0.43-0.81,0.9-0.81h8.64c0.46,0,0.85-0.35,0.9-0.81l1.36-14.11
		c0.05-0.53-0.37-0.99-0.9-0.99h-6.91c-0.53,0-0.95-0.46-0.9-0.99l0.16-1.67c0.04-0.46,0.43-0.81,0.9-0.81h21.37
		c0.53,0,0.95,0.46,0.9,0.99l-0.16,1.67c-0.04,0.46-0.43,0.81-0.9,0.81h-7.23c-0.46,0-0.85,0.35-0.9,0.81l-1.36,14.11
		c-0.05,0.53,0.37,0.99,0.9,0.99h8.32c0.53,0,0.95,0.46,0.9,0.99l-0.16,1.7c-0.04,0.46-0.43,0.81-0.9,0.81h-24.18
		C421.62,88.35,421.21,87.89,421.26,87.36z"/>
	<g>
		<path class="st0" d="M456.88,73.97l0.24-2.51c0.02-0.21,0.14-0.4,0.32-0.52c2.16-1.47,3.84-3.74,5.03-6.79
			c0.11-0.28,0.37-0.47,0.67-0.47l3.12,0c0.48,0,0.84,0.48,0.68,0.94c-0.59,1.76-1.3,3.31-2.13,4.65c-0.06,0.09-0.09,0.19-0.1,0.3
			l-1.91,19.75c-0.04,0.37-0.34,0.65-0.71,0.65h-3.24c-0.42,0-0.76-0.37-0.71-0.79l1.35-13.98c0.05-0.53-0.47-0.93-0.96-0.74
			c-0.22,0.09-0.45,0.17-0.68,0.25C457.35,74.88,456.83,74.49,456.88,73.97z"/>
		<path class="st0" d="M482.05,82.22L481.87,84c-0.04,0.37-0.34,0.65-0.71,0.65h-6.02c-0.37,0-0.68,0.28-0.71,0.65l-0.39,4.02
			c-0.04,0.37-0.34,0.65-0.71,0.65h-3.53c-0.42,0-0.75-0.36-0.71-0.79l1.67-17.22c0.06-0.6-0.62-1.02-1.11-0.67
			c-1.04,0.74-2.2,1.28-3.49,1.64c-0.49,0.14-0.97-0.25-0.92-0.76l0.26-2.69c0.02-0.22,0.14-0.41,0.32-0.53
			c1.7-1.12,2.99-2.73,3.86-4.82c0.11-0.27,0.37-0.45,0.66-0.45l3.5,0c0.38,0,0.64,0.37,0.52,0.73c-0.08,0.24-0.16,0.46-0.24,0.69
			c-0.13,0.36,0.13,0.74,0.52,0.74h8.94c0.42,0,0.75,0.36,0.71,0.79l-0.17,1.78c-0.04,0.37-0.34,0.65-0.71,0.65h-6.75
			c-0.37,0-0.68,0.28-0.71,0.65l-0.3,3.06c-0.04,0.42,0.29,0.79,0.71,0.79h4.86c0.42,0,0.75,0.36,0.71,0.79l-0.17,1.78
			c-0.04,0.37-0.34,0.65-0.71,0.65h-5.14c-0.37,0-0.68,0.28-0.71,0.65l-0.31,3.24c-0.04,0.42,0.29,0.79,0.71,0.79h5.74
			C481.75,81.43,482.09,81.8,482.05,82.22z"/>
	</g>
	<g>
		<g>
			<path class="st0" d="M353.02,95.94h0.42c0.34,0,0.59,0.31,0.53,0.64l-1.33,6.63c-0.07,0.33,0.19,0.64,0.53,0.64h2.64
				c0.2,0,0.34,0.18,0.31,0.37l-0.13,0.65c-0.03,0.15-0.16,0.25-0.31,0.25h-4.28c-0.34,0-0.59-0.31-0.53-0.64l1.62-8.11
				C352.54,96.12,352.76,95.94,353.02,95.94z"/>
			<path class="st0" d="M362.29,98.22h0.68c0.2,0,0.34,0.18,0.31,0.37l-1.22,6.09c-0.05,0.26-0.28,0.44-0.54,0.44h-0.68
				c-0.2,0-0.34-0.18-0.31-0.37l1.22-6.09C361.81,98.41,362.03,98.22,362.29,98.22z M362.1,96.22c0-0.54,0.45-0.98,1.01-0.98
				c0.44,0,0.86,0.29,0.86,0.79c0,0.56-0.45,0.97-1.01,0.97C362.52,97,362.1,96.73,362.1,96.22z"/>
			<path class="st0" d="M367.09,107.54c-0.24-0.15-0.31-0.47-0.15-0.71c0.07-0.12,0.15-0.24,0.24-0.36
				c0.11-0.17,0.27-0.15,0.42-0.05c0.29,0.2,0.53,0.31,0.61,0.34c0.2,0.08,0.54,0.23,1,0.23c1.04,0,1.69-0.65,1.97-1.74
				c0.09-0.36,0.18-0.73,0.29-1.1c0.02-0.08-0.01-0.16-0.07-0.1c-0.24,0.22-1.05,0.97-2.11,0.94c-0.19,0-0.71-0.02-1.16-0.35
				c-0.52-0.38-0.84-1.07-0.84-2.07c0-2.5,1.75-4.5,3.62-4.5c0.29,0,0.54,0.08,0.54,0.08c0.57,0.2,0.9,0.7,0.99,0.83
				c0.03,0.04,0.09,0.03,0.11-0.02c0.07-0.2,0.15-0.41,0.22-0.62c0.02-0.07,0.08-0.1,0.16-0.1c0.35,0,0.69,0,1.04,0
				c0.04,0,0.07,0.05,0.06,0.09c-0.46,2.31-0.92,4.61-1.39,6.91c-0.03,0.25-0.23,1.52-1.35,2.34c-0.56,0.41-1.26,0.62-2.1,0.62
				C368.44,108.19,367.72,107.95,367.09,107.54z M371.52,102.79c0.05-0.07,0.09-0.15,0.11-0.23l0.49-2.43
				c-0.32-0.59-0.72-0.84-1.15-0.84c-1.13,0-2.15,1.42-2.15,3.06c0,0.93,0.39,1.38,1,1.38
				C370.34,103.73,370.99,103.46,371.52,102.79z"/>
			<path class="st0" d="M379.97,95.2h0.87c0.2,0,0.34,0.18,0.31,0.37l-0.52,2.54c0,0.01,0,0.01,0,0.02l-0.27,0.99h0.06
				c0.7-0.61,1.44-1.07,2.27-1.07c1.15,0,1.64,0.64,1.64,1.75c0,0.32-0.03,0.61-0.11,0.97l-0.82,4.1c-0.03,0.15-0.16,0.25-0.31,0.25
				h-0.87c-0.2,0-0.34-0.18-0.31-0.37l0.76-3.79c0-0.01,0-0.01,0-0.02c0.35-1.67-0.46-2.18-1.82-1.14
				c-0.19,0.14-0.39,0.32-0.61,0.54c-0.05,0.04-0.08,0.11-0.09,0.17l-0.86,4.36c-0.03,0.15-0.16,0.25-0.31,0.25h-0.87
				c-0.2,0-0.34-0.18-0.31-0.37l1.86-9.3C379.7,95.31,379.82,95.2,379.97,95.2z"/>
			<path class="st0" d="M388.91,103.61c0-0.29,0.04-0.54,0.09-0.82c0.21-1.05,0.43-2.1,0.65-3.15c0.03-0.09-0.01-0.22-0.13-0.22
				c-0.13,0-0.44,0-0.6-0.01c-0.13,0-0.17-0.1-0.14-0.23c0.03-0.15,0.1-0.5,0.13-0.65c0.04-0.17,0.15-0.25,0.28-0.25l0.59-0.04
				c0.13-0.01,0.24-0.1,0.28-0.22l0.42-1.42c0.04-0.13,0.16-0.22,0.3-0.22h0.65c0.2,0,0.34,0.18,0.31,0.37l-0.22,1.11
				c-0.04,0.19,0.11,0.37,0.31,0.37c0.34,0,0.68,0,1.02,0c0.15,0,0.23,0.1,0.2,0.23c-0.05,0.24-0.1,0.48-0.14,0.71
				c-0.03,0.12-0.11,0.25-0.31,0.25h-1.17c-0.15,0-0.28,0.1-0.31,0.25l-0.65,3.19c-0.03,0.17-0.04,0.32-0.04,0.48
				c0,0.51,0.22,0.76,0.8,0.76c0.18,0,0.34-0.04,0.49-0.12c0.08-0.04,0.16-0.01,0.19,0.08c0.06,0.22,0.12,0.43,0.18,0.64
				c0.01,0.03,0.02,0.08,0.01,0.13c-0.02,0.11-0.1,0.21-0.21,0.24c-0.31,0.11-0.72,0.2-1.19,0.2
				C389.42,105.29,388.91,104.57,388.91,103.61z"/>
		</g>
		<g>
			<path class="st0" d="M405.97,103.61c0-0.29,0.04-0.54,0.09-0.82c0.21-1.05,0.43-2.1,0.65-3.15c0.03-0.09-0.01-0.22-0.13-0.22
				c-0.13,0-0.44,0-0.6-0.01c-0.13,0-0.17-0.1-0.14-0.23c0.03-0.15,0.1-0.5,0.13-0.65c0.04-0.17,0.15-0.25,0.28-0.25l0.59-0.04
				c0.13-0.01,0.24-0.1,0.28-0.22l0.42-1.42c0.04-0.13,0.16-0.22,0.3-0.22h0.65c0.2,0,0.34,0.18,0.31,0.37l-0.22,1.11
				c-0.04,0.19,0.11,0.37,0.31,0.37c0.34,0,0.68,0,1.02,0c0.15,0,0.23,0.1,0.2,0.23c-0.05,0.24-0.1,0.48-0.14,0.71
				c-0.03,0.12-0.11,0.25-0.31,0.25h-1.17c-0.15,0-0.28,0.1-0.31,0.25l-0.65,3.19c-0.03,0.17-0.04,0.32-0.04,0.48
				c0,0.51,0.22,0.76,0.8,0.76c0.18,0,0.34-0.04,0.49-0.12c0.08-0.04,0.16-0.01,0.19,0.08c0.06,0.22,0.12,0.43,0.18,0.64
				c0.01,0.03,0.02,0.08,0.01,0.13c-0.02,0.11-0.1,0.21-0.21,0.24c-0.31,0.11-0.72,0.2-1.19,0.2
				C406.47,105.29,405.97,104.57,405.97,103.61z"/>
			<path class="st0" d="M415.51,95.2h0.87c0.2,0,0.34,0.18,0.31,0.37l-0.52,2.54c0,0.01,0,0.01,0,0.02l-0.27,0.99h0.06
				c0.7-0.61,1.44-1.07,2.27-1.07c1.15,0,1.64,0.64,1.64,1.75c0,0.32-0.03,0.61-0.11,0.97l-0.82,4.1c-0.03,0.15-0.16,0.25-0.31,0.25
				h-0.87c-0.2,0-0.34-0.18-0.31-0.37l0.76-3.79c0-0.01,0-0.01,0-0.02c0.36-1.68-0.45-2.18-1.82-1.14
				c-0.19,0.14-0.39,0.32-0.61,0.54c-0.05,0.04-0.08,0.11-0.09,0.17l-0.86,4.36c-0.03,0.15-0.16,0.25-0.31,0.25h-0.87
				c-0.2,0-0.34-0.18-0.31-0.37l1.86-9.3C415.23,95.31,415.36,95.2,415.51,95.2z"/>
			<path class="st0" d="M427.76,98.05c1.6,0,2.2,1.12,2.2,2.55c0,0.47-0.12,0.95-0.23,1.25c-0.04,0.13-0.16,0.21-0.29,0.21h-3.68
				c-0.17,0-0.31,0.13-0.31,0.3c-0.01,1.24,0.75,1.77,1.73,1.77c0.58,0,1.05-0.3,1.24-0.43c0.1-0.06,0.19-0.06,0.23,0.02
				c0.11,0.2,0.23,0.39,0.33,0.58c0.11,0.2,0.05,0.33-0.1,0.42c-0.54,0.32-1.26,0.57-2.11,0.57c-1.65,0-2.76-1.07-2.76-2.92
				C424,99.8,425.94,98.05,427.76,98.05z M428.67,100.85c0,0,0.02-0.19,0.03-0.36c0-0.08,0.01-0.71-0.4-1.04
				c-0.17-0.14-0.41-0.23-0.72-0.23c-0.72,0-1.42,0.53-1.83,1.43c-0.11,0.24,0.06,0.45,0.29,0.44c0.8-0.01,1.54-0.01,2.33,0
				C428.52,101.1,428.65,101,428.67,100.85z"/>
		</g>
		<g>
			<path class="st0" d="M443.5,98.22h0.86c0.17,0,0.31,0.13,0.31,0.3l0.11,3.39c0.01,0.66-0.01,1.32-0.02,1.98
				c0,0.01,0.01,0.02,0.03,0.02c0.01,0,0.03-0.01,0.03-0.02c0.12-0.33,0.26-0.66,0.39-1c0.13-0.33,0.26-0.66,0.41-0.99l1.53-3.5
				c0.05-0.11,0.16-0.19,0.29-0.19h0.87c0.17,0,0.3,0.13,0.31,0.3l0.16,3.39c0.02,0.66,0.02,1.32,0.03,1.98
				c0,0.01,0.01,0.02,0.02,0.02c0.01,0,0.03-0.01,0.03-0.02c0.12-0.33,0.25-0.66,0.38-0.99c0.12-0.33,0.25-0.66,0.38-0.99l1.46-3.5
				c0.05-0.12,0.16-0.19,0.29-0.19c0.31,0,0.63,0,0.94,0c0.18,0,0.2,0.12,0.16,0.22c-0.97,2.16-1.92,4.33-2.85,6.49
				c-0.01,0.03-0.04,0.09-0.11,0.14c-0.05,0.03-0.11,0.05-0.17,0.05h-1.3c-0.17,0-0.31-0.13-0.31-0.3l-0.11-3.02
				c-0.01-0.65-0.01-1.33-0.01-2.03h-0.06c-0.27,0.7-0.51,1.38-0.78,2.03l-1.33,3.13c-0.05,0.11-0.16,0.19-0.29,0.19h-1.25
				c-0.16,0-0.3-0.13-0.31-0.29l-0.37-6.28C443.18,98.37,443.32,98.22,443.5,98.22z"/>
			<path class="st0" d="M455.88,102.48c0-2.64,1.9-4.43,3.8-4.43c1.55,0,2.57,1.09,2.57,2.81c0,2.63-1.9,4.43-3.8,4.43
				C456.91,105.29,455.88,104.2,455.88,102.48z M460.73,100.91c0-1.04-0.42-1.64-1.21-1.64c-1.1,0-2.11,1.39-2.11,3.15
				c0,1.04,0.42,1.64,1.21,1.64C459.72,104.07,460.73,102.68,460.73,100.91z"/>
			<path class="st0" d="M467.79,98.22h0.63c0.18,0,0.33,0.16,0.31,0.34c-0.03,0.28-0.09,0.93-0.09,0.97c0,0.03,0.04,0.04,0.07,0.01
				c0.13-0.2,0.94-1.45,2.11-1.48c0.13,0,0.27,0.01,0.27,0.01c0.16,0.02,0.28,0.06,0.32,0.07c0.06,0.02,0.09,0.07,0.06,0.14
				c-0.06,0.13-0.3,0.79-0.41,1.06c-0.03,0.08-0.09,0.14-0.18,0.11c0,0-0.23-0.07-0.52-0.06c-0.53,0.02-1.32,0.55-1.85,1.51
				c-0.02,0.03-0.03,0.07-0.04,0.1l-0.75,3.86c-0.03,0.15-0.16,0.25-0.31,0.25h-0.87c-0.2,0-0.34-0.18-0.31-0.37l1.24-6.28
				C467.52,98.33,467.65,98.22,467.79,98.22z"/>
			<path class="st0" d="M476.61,95.2h0.87c0.2,0,0.34,0.18,0.31,0.37c-0.4,1.94-0.78,3.88-1.17,5.83c0,0,0,0.05,0.04,0.03
				c0,0,1.99-2.09,2.96-3.12c0.02-0.02,0.06-0.05,0.1-0.07c0.04-0.02,0.08-0.03,0.12-0.03c0.44-0.01,0.88,0,1.34,0
				c0.09,0,0.15,0.08,0.03,0.21c-1.29,1.33-1.58,1.63-2.45,2.6c-0.07,0.09-0.11,0.2-0.06,0.33l1.39,3.33
				c0.09,0.21-0.07,0.43-0.29,0.43h-0.84c-0.13,0-0.24-0.08-0.29-0.2l-0.93-2.41c-0.08-0.21-0.35-0.27-0.51-0.11l-0.94,0.95
				c-0.04,0.04-0.07,0.1-0.08,0.16l-0.28,1.36c-0.03,0.15-0.16,0.25-0.31,0.25h-0.87c-0.2,0-0.34-0.18-0.31-0.37l1.86-9.3
				C476.33,95.31,476.46,95.2,476.61,95.2z"/>
		</g>
	</g>
	<g>
		<path class="st0" d="M226.19,90.3h4.16c0,0,2.32-0.02,1.49,2.38c-0.98,2.82-2.28,4.92-4.1,6.96l0,0
			c-3.85,4.02-6.72,5.61-8.83,6.13c-1.97,0.48-2.95,0-3.26-0.76c-0.48-1.39,0.13-2.92,2.87-5.21c2.35-1.97,3.9-4.62,5-7.72
			C224.23,90.08,226.19,90.3,226.19,90.3z"/>
		<path class="st0" d="M316.16,79.28l0.23-2.66c0.06-0.88-0.26-1.67-1.58-1.67c-3.23,0-6.45,0-9.68,0c-0.78,0-1.16-0.58-1.09-1.29
			c0.09-0.99,0.18-1.98,0.26-2.97c0.07-0.85,0.62-1.28,1.27-1.27c3,0.06,6.13-0.16,8.61-0.71c1.47-0.32,1.64-1.83,1.64-1.83
			l0.28-3.14c0,0,0.22-1.5-1.61-1.02c-2.65,0.7-5.1,0.97-7.34,0.97h-19.95c-1.35,0-2.06,0.84-2.2,1.95
			c-0.07,0.75-0.16,1.51-0.2,2.26c-0.09,1.46,1.4,1.52,1.4,1.52h8.01c0.81,0,1.2,0.36,1.14,1.13c-0.09,0.97-0.17,1.95-0.26,2.92
			c-0.18,1.5-1.72,1.47-1.72,1.47h-9.02c-0.97,0-1.64,0.58-1.74,1.63c-0.09,0.9-0.16,1.8-0.24,2.7c-0.14,1.64,1.41,1.61,1.41,1.61
			h9.11c0.97,0,1.51,0.47,1.42,1.45c-0.08,0.93-0.16,1.86-0.25,2.79c-0.17,1.9-1.71,1.91-1.71,1.91h-6.91
			c-1.4,0-2.41,0.86-2.55,2.43c-0.43,5.02-0.88,10.03-1.33,15.05c-0.25,2.79,2.22,2.78,2.22,2.78h20.32
			c5.28,0.13,8.16-2.53,8.64-7.98l0.87-9.9c0.07-1.35-0.52-2.39-2.18-2.39c-2.42,0-4.84,0-7.26,0c-0.8,0-1.28-0.65-1.2-1.6
			c0.08-0.96,0.17-1.92,0.25-2.88c0.2-1.23,0.99-1.67,1.71-1.67c3.18,0,6.22,0,9.4,0C315.49,80.89,316.05,80.24,316.16,79.28z
			 M304.88,94.2l-0.41,4.7c-0.06,2.18-1.17,3.21-3.32,3.07h-9.52c-1.01,0-1.41-0.69-1.34-1.45c0.19-2.11,0.37-4.22,0.56-6.33
			c0.08-1.01,0.78-1.44,1.55-1.44c3.7,0,7.39,0,11.09,0C305.02,92.76,304.88,94.2,304.88,94.2z"/>
		<path class="st0" d="M246.48,80.34l0.45-5.15c0.13-1.49-0.96-2.7-2.44-2.7h-4c-1.48,0-2.79,1.21-2.92,2.7l-0.45,5.06
			c-0.07,0.67-0.52,1.45-1.54,1.45c-1.36,0-2.72,0-4.09,0c-1.9,0-2.77-0.89-2.61-2.66l0.73-8.22c0.06-0.57,0.47-0.99,1.13-0.99
			c5.35,0,10.7,0,16.05,0c5.08,0.12,9.44-0.16,13.04-1.05c1.61-0.4,1.64-1.68,1.64-1.68l0.34-3.85c0,0,0.28-1.24-1.6-0.8
			c-4.93,1.15-9.71,1.57-14.33,1.44h-21.53c-1.48,0-2.79,1.21-2.92,2.7l-1.3,14.7c-0.53,4.5,1.31,6.69,5.53,6.55h9.2
			c1.16,0.03,1.53,0.64,1.44,1.57c-0.34,3.84-0.68,7.69-1.02,11.53c-0.13,1.5-0.69,2.06-2.01,2.05h-0.96c-0.79,0-1.27,0.57-1.4,1.36
			c-0.11,0.94-0.15,1.51-0.27,3.09c-0.09,1.1,0.51,1.28,1.16,1.28c1.68,0,3.35,0,5.03,0c4.87,0.13,7.47-2.39,7.79-7.57l1.06-12
			c0.1-0.75,0.66-1.3,1.58-1.3c4.41,0,8.83,0,13.24,0c0.89,0,1.22-0.71,1.27-1.18c0.12-1.25,0.22-2.51,0.33-3.76
			c0.06-0.79-0.43-1.2-1.19-1.2c-1.16,0-11.88,0.02-13.24,0C246.76,81.71,246.4,81.27,246.48,80.34z"/>
		<path class="st0" d="M280.75,89.75c-0.02-1.73-1.83-1.66-1.83-1.66s-1.65,0-3.23,0c-1.58,0-1.99,1.07-2.2,1.79
			c-0.19,0.63-1.44,5.11-1.44,5.11c-1.51,5.18-4.02,6.69-6.79,6.64c-0.33-0.01-1.06-0.04-1.84-0.25c-5.42-1.42-7.12-9.3-7.12-9.3
			c-0.36-2.01-2.36-1.78-2.36-1.78h-4.16c0,0-2.34,0.31-1.97,2.05c0.59,2.79,3.43,7.87,3.68,8.15c2.9,4.58,7.37,7.1,13.37,7.1l0,0
			l0,0l0,0l0,0c9.11,0,13.05-7.04,14.72-12.31C280.35,92.91,280.77,90.63,280.75,89.75z"/>
		<path class="st0" d="M272.35,65.52c-0.35-1.45,0.35-2.77,1.86-2.77c0.27,0,2.33,0,3.3,0c1.07,0,2.25,0.35,2.86,2.35
			c0.7,2.31,1.13,4.29,1.26,4.98c0.21,1.18-0.07,2.7-2.21,2.87c-0.95,0.08-2.13,0.06-2.7,0.04c-1.63-0.07-2.7-0.8-3.08-2.32
			C272.81,67.37,272.56,66.38,272.35,65.52z"/>
		<path class="st0" d="M271.52,78.06c-0.35-1.45,0.35-2.77,1.86-2.77c0.27,0,2.33,0,3.3,0c1.07,0,2.25,0.35,2.86,2.35
			c0.7,2.31,1.13,4.29,1.26,4.98c0.21,1.18-0.07,2.7-2.21,2.87c-0.95,0.08-2.13,0.06-2.7,0.04c-1.63-0.07-2.7-0.8-3.08-2.32
			C271.98,79.91,271.73,78.92,271.52,78.06z"/>
	</g>
	<g>
		<path class="st1" d="M158.91,99.66c-0.8-0.65-1.62-0.97-2.4-1.09c-1.95-0.3-3.66,0.7-4.27,1.33c-0.85,0.89-1.09,1.58-1.21,2.67
			c-0.12,1.09-0.77,2.5-3.15,4.24c-2.37,1.72-8.2,5.87-15.79,7.67c-2.75,0.53-5.64,0.82-8.62,0.82c-3.09,0-6.08-0.32-8.93-0.89
			c-7.46-1.83-13.19-5.9-15.53-7.61c-2.38-1.74-3.03-3.15-3.15-4.24s-0.36-1.78-1.21-2.67c-0.61-0.63-2.32-1.63-4.27-1.33
			c-0.78,0.12-1.6,0.44-2.4,1.09c-1.83,1.49-1.33,3.44-0.69,4.62c0.2,0.36,0.45,0.69,0.69,1.03c6.77,9.75,20.12,16.39,35.49,16.39
			c15.4,0,28.76-6.67,35.53-16.45c0.02-0.02,0.18-0.25,0.23-0.33C159.83,104.01,161.15,101.48,158.91,99.66z"/>
		<path class="st2" d="M187.3,104c-4.55,0.06-7.23-3.15-9.39-6.76c-0.45-0.76-2.08-3.5-0.86-4.65c0.73-0.69,2.48-1.04,3.73-0.56
			c1.08,0.41,1.46,1.62,1.42,2.81c-0.07,1.75,1.41,3.49,3.16,3.67c1.6,0.16,3.43-0.97,3.94-2.57c0.7-2.21-0.63-3.84-1.94-4.67
			c-2.58-1.64-5.82-4.06-3.85-9.09c1.58-4.09,4.91-5.97,9.45-5.12c3.18,0.55,6.04,2.54,7.67,5.64c1.06,2.39,0.52,4.73-0.64,6.18
			c-0.61,0.77-1.52,1.24-1.82,1.09c-0.56-0.28-0.44-0.91-0.39-1.4c0.27-2.48-1.34-4.49-3.1-5.14c-1.14-0.43-3.19-0.77-4.23,0.97
			c-1.06,1.76,0.02,3.51,1.9,4.79c3.56,2.42,4.83,5.21,3.65,8.69C194.7,101.63,191,104.06,187.3,104z"/>
		<path class="st1" d="M146.89,42.78c2.64-0.06,4.28,1.21,4.82,2.77c0.71,2.07-0.25,4.13-2.44,5.21c-2.07,1.02-4.73,2.1-6.24,2.96
			c-1.8,1.03-3.6,2.7-4.12,5.47c-0.26,2.83,1.21,4.64,5.02,4.37c1.86-0.13,4.63-0.06,6.24,0.64c1.88,0.83,2.7,3.15,2.7,5.59
			c0,4.26-1.36,9.84-3.15,12.86c-1.03,1.74-2.25,2.31-4.23,1.98c-1.17-0.19-2.65-1.27-2.45-3.4c0.22-2.45,0.68-4.03,0.9-6.49
			c0.19-2.19-0.83-4.38-3.28-4.63c-1.86-0.19-3.7,0.87-4.63,3.28c-0.87,2.25-2.5,6.37-3.54,7.72c-1.56,2.03-4.69,2.38-5.53-1.29
			c-2.94-12.87,2.72-27.6,11.15-33.41C141.22,44.34,144.49,42.82,146.89,42.78z"/>
		<path class="st1" d="M94.09,47.85c0.64-1.89,1.39-3.65,2.77-5.09c2.15-2.24,5.04-2.81,6.87-1.5c2.17,1.55,3.06,5.44,1.7,7.9
			c-0.64,1.16-1.47,2.23-2.27,3.3c-1.94,2.59-2.86,5.53-3.19,8.71c-0.18,1.71,0.57,2.13,2.04,1.76c1.37-0.34,2.72-0.75,4.08-1.13
			c6.73-1.91,10.73,0.31,12.68,7.06c1.05,3.65,1.1,7.27-0.37,10.83c-0.9,2.18-2.64,3.62-4.64,3.8c-0.97,0.09-1.6-0.03-1.39-1.26
			c0.56-3.31-0.06-6.74-1.27-9.29c-1.33-2.55-3.21-3.7-5.76-3.15c-2.14,0.46-3.67,2.36-4.21,4.39c-0.5,1.86-0.29,4.41-0.42,6.67
			c-0.12,2.17-0.48,4.23-2.73,5.34c-1.21,0.59-1.92,0.52-2.38-0.96c-1.34-4.36-2.32-8.79-2.88-13.31
			C91.83,64.82,91.58,55.31,94.09,47.85z"/>
		<path class="st3" d="M79.09,67.46c-6.32,0-11.43,5.44-11.43,12.16c0,6.72,5.12,12.16,11.43,12.16s11.43-5.44,11.43-12.16
			C90.52,72.9,85.4,67.46,79.09,67.46z M79.09,84.07c-2.42,0-4.38-1.99-4.38-4.45c0-2.46,1.96-4.45,4.38-4.45s4.38,1.99,4.38,4.45
			C83.47,82.07,81.51,84.07,79.09,84.07z"/>
		<path class="st0" d="M65.51,86.01c0.68,0.62,1.71,2.68,2.01,4.2c0.37,1.84,0.27,3.67,0,4.79c-0.79,3.27-3.21,6.42-6.36,7.88
			c-3.93,1.81-9.05,0.46-11.72-2.93c-4.2-5.17-7.81-14.87-9.68-23.42c-0.61-2.81,0.47-5.59,3.29-6.47c2.95-0.93,5.33,0.32,6.48,3.34
			c1.25,3.27,2.03,6.95,2.81,10.32c0.68,2.91,1.29,5.33,2.68,8.2c0.75,1.57,1.77,2.47,2.92,2.64c1.73,0.26,3.28-1.31,3.76-1.88
			c1.24-1.47,1.74-3.05,3.22-6.61C65.08,85.71,65.27,85.8,65.51,86.01z"/>
		<path class="st4" d="M177.6,73.31c-1.9-2.77-5.45-5.6-9.36-5.64c-1.31-0.04-3.48,0.34-4.95,1.05c-4.85,2.34-8.52,6.99-9.05,12.65
			c-0.65,6.87,4.08,11.03,10.87,8.45c0.89-0.34,1.33-0.24,1.41,0.76c0.08,0.97,0.41,1.86,0.77,2.31c0.71,0.86,1.86,1.72,3.65,1.25
			c1.24-0.32,2.82-1.21,2.27-3.66c-0.44-1.98,0.14-3.98,0.91-5.51c0.86-1.71,1.99-3.77,3.31-6.42
			C178.32,76.76,178.66,74.85,177.6,73.31z M164.47,83.28c-2.04-0.04-3.27-1.27-3.22-3.23c0.07-2.69,2.79-5.55,5.18-5.43
			c1.99,0.1,3.38,1.66,3.36,3.78C169.76,81.05,167.27,83.33,164.47,83.28z"/>
		<path class="st5" d="M159.23,104.93c-0.05,0.07-0.1,0.15-0.15,0.22C159.12,105.1,159.17,105.02,159.23,104.93z"/>
	</g>
	<path class="st0" d="M335.29,61.86c-0.42-0.03-0.8,0.3-0.82,0.73l-2.6,45.05c-0.03,0.43,0.3,0.8,0.73,0.82c0.02,0,0.03,0,0.05,0
		c0.41,0,0.75-0.32,0.77-0.73l2.6-45.05C336.04,62.25,335.72,61.89,335.29,61.86z"/>
</g>
</svg>
