<?xml version="1.0" encoding="UTF-8" standalone="yes"?><svg fill="none" xmlns="http://www.w3.org/2000/svg" xmlns:xlink="http://www.w3.org/1999/xlink" version="1.2" baseProfile="tiny" x="0" y="0" width="256" height="256" viewBox="0 0 256 256"><defs><linearGradient id="wps{d3e9cac1-1229-4839-8cce-068cf40a997d}@#5469ff_0.00@Accent1_0.00" x1="0" y1="0.5" x2="1" y2="0.5" spreadMethod="pad" gradientUnits="objectBoundingBox" gradientTransform="matrix(0.939693,0.34202,-0.34202,0.939693,0.201164,-0.140856)"><stop offset="0.04" stop-color="#5469ff" stop-opacity="1"/><stop offset="0.99999" stop-color="rgba(55,111,255,0.4)" stop-opacity="0.4"/></linearGradient></defs><defs/><defs/><defs/><g id="单面性_10741939503.研究创新" clip-path="url(#clip0_9_25955)"><g id="Group"><g id="Group_2"><g id="Group_3"><path id="Vector" fill="#ffffff" fill-opacity="1" d="M 54.6962 127.207 C 54.6962 100.978 68.6546 76.7351 91.321 63.6283 C 113.974 50.5138 141.901 50.5138 164.554 63.6283 C 187.22 76.7614 201.173 100.993 201.163 127.207 C 201.163 153.421 187.204 177.664 164.554 190.786 C 141.901 203.901 113.974 203.901 91.321 190.786 C 68.6493 177.657 54.6904 153.425 54.6962 127.207 M 141.664 237.541 C 146.756 237.541 150.884 241.674 150.884 246.771 C 150.884 251.868 146.756 256 141.664 256 L 114.211 256 C 109.119 256 104.992 251.868 104.992 246.771 C 104.992 241.674 109.119 237.541 114.211 237.541 L 141.664 237.541 M 127.93 45.4423 C 125.486 45.4423 123.142 44.4694 121.416 42.7382 C 119.689 41.0069 118.721 38.6593 118.726 36.213 L 118.726 8.68562 C 119.013 3.80809 123.049 0 127.93 0 C 132.811 0 136.846 3.80809 137.133 8.68562 L 137.133 36.213 C 137.134 41.304 133.015 45.4334 127.93 45.4423 M 56.8892 69.6049 L 37.4563 50.137 C 34.2707 46.4762 34.4566 40.9724 37.882 37.5352 C 41.3073 34.098 46.8052 33.8985 50.4703 37.0783 L 69.9032 56.5622 C 73.0371 60.2289 72.8267 65.6915 69.4199 69.1058 C 66.0132 72.52 60.5562 72.7374 56.8892 69.6049 M 36.704 118.587 C 41.7962 118.587 45.9242 122.719 45.9242 127.816 C 45.9242 132.914 41.7962 137.046 36.704 137.046 L 9.25146 137.046 C 4.15928 137.046 0.03125 132.914 0.03125 127.816 C 0.03125 122.719 4.15928 118.587 9.25146 118.587 L 36.72 118.587 L 36.704 118.587 M 246.752 118.427 C 251.845 118.427 255.973 122.559 255.973 127.656 C 255.973 132.753 251.845 136.885 246.752 136.885 L 219.299 136.885 C 214.207 136.885 210.079 132.753 210.079 127.656 C 210.079 122.559 214.207 118.427 219.299 118.427 L 246.752 118.427 M 199.018 69.4768 C 195.416 73.0784 189.578 73.0747 185.98 69.4687 C 182.382 65.8627 182.386 60.0196 185.989 56.418 L 205.421 36.9662 C 207.751 34.6363 211.147 33.728 214.328 34.5832 C 217.508 35.4384 219.992 37.9275 220.843 41.1125 C 221.693 44.2976 220.781 47.695 218.451 50.0249 L 199.034 69.4768 L 199.018 69.4768 M 157.815 209.822 C 162.908 209.822 167.036 213.954 167.036 219.051 C 167.036 224.148 162.908 228.28 157.815 228.28 L 98.028 228.28 C 92.9359 228.28 88.8078 224.148 88.8078 219.051 C 88.8078 213.954 92.9359 209.822 98.028 209.822 L 157.831 209.822 L 157.815 209.822"/></g></g></g></g><defs><clipPath id="clip0_9_25955" clipPathUnits="userSpaceOnUse"><rect fill="#ffffff" x="0" y="0" width="256" height="256"/></clipPath></defs></svg>
