<?xml version="1.0" encoding="UTF-8" standalone="yes"?><svg fill="none" xmlns="http://www.w3.org/2000/svg" xmlns:xlink="http://www.w3.org/1999/xlink" version="1.2" baseProfile="tiny" x="0" y="0" width="256" height="256" viewBox="0 0 256 256"><defs><linearGradient id="wps{138bccfb-4d4e-441d-82c9-27511283ed02}@#5469ff_0.00@Accent1_0.00" x1="0" y1="0.5" x2="1" y2="0.5" spreadMethod="pad" gradientUnits="objectBoundingBox" gradientTransform="matrix(0.939693,0.34202,-0.34202,0.939693,0.201164,-0.140856)"><stop offset="0.04" stop-color="#5469ff" stop-opacity="1"/><stop offset="0.99999" stop-color="rgba(55,111,255,0.4)" stop-opacity="0.4"/></linearGradient></defs><defs/><defs/><defs/><g id="单面性_10740922578.优秀"><g id="Group"><g id="Group_2"><g id="Group_3"><path id="Vector" fill="#ffffff" fill-opacity="1" clip-rule="evenodd" d="M 69.2306 146.059 C 47.9718 124.716 39.6684 93.6054 47.4487 64.448 C 55.2288 35.2906 77.9104 12.5157 106.95 4.70281 C 135.989 -3.1101 166.973 5.22593 188.23 26.5707 C 209.49 47.9143 217.792 79.0245 210.012 108.182 C 202.233 137.339 179.551 160.114 150.512 167.927 C 121.473 175.74 90.4884 167.404 69.2306 146.059 M 129.14 49.0098 L 116.053 72.4164 L 91.3098 77.5494 L 108.794 97.2602 L 105.828 123.644 L 129.14 111.941 L 151.736 123.644 L 148.771 97.2602 L 166.255 77.5494 L 141.512 72.4164 L 129.14 49.0098"/></g><g id="Group_4"><path id="Vector_2" fill="#ffffff" fill-opacity="1" clip-rule="evenodd" d="M 206.713 137.453 L 255.808 208.519 C 256.158 209.004 256.009 209.635 255.526 209.987 C 255.331 210.106 255.034 210.236 254.822 210.151 L 207.127 204.637 C 206.609 204.58 206.127 204.931 205.968 205.46 L 195.474 253.267 C 195.314 253.797 194.832 254.148 194.212 254.098 C 194 254.014 193.787 253.93 193.556 253.642 L 142.837 178.731 C 146.186 178.215 149.525 177.513 152.841 176.621 C 175.317 170.577 194.351 156.439 206.713 137.453 M 112.882 178.444 L 62.4436 253.716 C 62.3149 254.014 62.0005 254.089 61.7878 254.174 C 61.1676 254.222 60.6853 253.871 60.5263 253.342 L 50.0321 205.535 C 49.8731 205.005 49.3907 204.654 48.8724 204.711 L 1.17807 210.226 C 0.965406 210.31 0.668796 210.182 0.474034 210.061 C -0.00840409 209.71 -0.15843 209.078 0.191872 208.594 L 49.5744 135.601 C 53.3018 141.631 57.7443 147.284 62.8661 152.424 C 76.6939 166.302 94.2395 175.211 112.882 178.444"/></g></g></g></g></svg>
