<?xml version="1.0" encoding="UTF-8" standalone="yes"?><svg fill="none" xmlns="http://www.w3.org/2000/svg" xmlns:xlink="http://www.w3.org/1999/xlink" version="1.2" baseProfile="tiny" x="0" y="0" width="256" height="256" viewBox="0 0 256 256"><defs><linearGradient id="wps{a3a6ed78-cba6-495c-9fee-5c4878144efe}@#5469ff_0.00@Accent1_0.00" x1="0" y1="0.5" x2="1" y2="0.5" spreadMethod="pad" gradientUnits="objectBoundingBox" gradientTransform="matrix(0.939693,0.34202,-0.34202,0.939693,0.201164,-0.140856)"><stop offset="0.04" stop-color="#5469ff" stop-opacity="1"/><stop offset="0.99999" stop-color="rgba(55,111,255,0.4)" stop-opacity="0.4"/></linearGradient></defs><defs/><defs/><defs/><g id="单面性_10759003400.考试" clip-path="url(#clip0_9_113994)"><g id="Group"><g id="Group_2"><g id="Group_3"><path id="Vector" fill="#ffffff" fill-opacity="1" d="M 177.072 0.0375977 L 24.5933 0.0375977 C 11.0107 0.0375977 0 11.0483 0 24.6309 L 0 220.489 C 0 234.071 11.0107 245.082 24.5933 245.082 L 123.117 245.082 L 201.665 123.763 L 201.665 24.6309 C 201.665 11.0483 190.654 0.0375977 177.072 0.0375977 M 145.697 117.443 L 46.6903 117.443 C 42.6155 117.443 39.3123 114.14 39.3123 110.065 C 39.3123 105.99 42.6155 102.687 46.6903 102.687 L 145.697 102.687 C 149.771 102.687 153.075 105.99 153.075 110.065 C 153.075 114.14 149.771 117.443 145.697 117.443 M 145.697 65.3389 L 46.6903 65.3389 C 42.6155 65.3389 39.3123 62.0357 39.3123 57.9609 C 39.3123 53.8861 42.6155 50.5829 46.6903 50.5829 L 145.697 50.5829 C 149.771 50.5829 153.075 53.8861 153.075 57.9609 C 153.075 62.0357 149.771 65.3389 145.697 65.3389"/></g><g id="Group_4"><path id="Vector_2" fill="#ffffff" fill-opacity="1" d="M 215.622 130.453 L 245.22 149.239 L 184.146 243.093 C 183.656 243.845 182.971 244.449 182.163 244.839 L 160.137 255.473 C 158.583 256.223 156.75 256.105 155.306 255.161 C 153.861 254.217 153.018 252.586 153.082 250.861 L 153.964 226.477 C 153.996 225.586 154.27 224.719 154.757 223.972 L 215.622 130.453 Z"/></g><g id="Group_5"><path id="Vector_3" fill="#ffffff" fill-opacity="1" d="M 253.262 136.872 L 223.664 118.085 L 223.882 117.75 C 228.976 109.93 239.443 107.716 247.267 112.804 L 248.316 113.486 C 256.136 118.58 258.35 129.047 253.262 136.872 Z"/></g></g></g></g><defs><clipPath id="clip0_9_113994" clipPathUnits="userSpaceOnUse"><rect fill="#ffffff" x="0" y="0" width="256" height="256"/></clipPath></defs></svg>
